{
  "accessors": [
    {
      "bufferView": 2,
      "componentType": 5126,
      "count": 2183,
      "max": [
        1.513700008392334,
        6.46396017074585,
        2.200670003890991
      ],
      "min": [
        -4.625329971313477,
        -8.485730171203613,
        -2.200670003890991
      ],
      "type": "VEC3"
    },
    {
      "bufferView": 2,
      "byteOffset": 26196,
      "componentType": 5126,
      "count": 2183,
      "max": [
        0.9996724128723145,
        0.9462503790855408,
        1.0
      ],
      "min": [
        -0.9987883567810059,
        -0.9964852333068848,
        -1.0
      ],
      "type": "VEC3"
    },
    {
      "bufferView": 1,
      "componentType": 5126,
      "count": 2183,
      "max": [
        0.9998999834060669,
        0.33191999793052673
      ],
      "min": [
        9.999999747378752e-05,
        9.999999747378752e-05
      ],
      "type": "VEC2"
    },
    {
      "bufferView": 0,
      "componentType": 5125,
      "count": 3240,
      "type": "SCALAR"
    },
    {
      "bufferView": 2,
      "byteOffset": 52392,
      "componentType": 5126,
      "count": 1188,
      "max": [
        -0.5917800068855286,
        13.357879638671875,
        1.938439965248108
      ],
      "min": [
        -4.606840133666992,
        -8.756770133972168,
        -1.938439965248108
      ],
      "type": "VEC3"
    },
    {
      "bufferView": 2,
      "byteOffset": 66648,
      "componentType": 5126,
      "count": 1188,
      "max": [
        0.9999712109565735,
        0.998295247554779,
        0.998193085193634
      ],
      "min": [
        -0.9956846237182617,
        -0.9996815323829651,
        -0.998193085193634
      ],
      "type": "VEC3"
    },
    {
      "bufferView": 1,
      "byteOffset": 17464,
      "componentType": 5126,
      "count": 1188,
      "max": [
        0.4871799945831299,
        0.48304998874664307
      ],
      "min": [
        9.999999747378752e-05,
        0.3321300148963928
      ],
      "type": "VEC2"
    },
    {
      "bufferView": 0,
      "byteOffset": 12960,
      "componentType": 5125,
      "count": 1788,
      "type": "SCALAR"
    },
    {
      "bufferView": 2,
      "byteOffset": 80904,
      "componentType": 5126,
      "count": 160,
      "max": [
        0.3979800045490265,
        -5.507900238037109,
        1.7729599475860596
      ],
      "min": [
        -0.7419999837875366,
        -6.270090103149414,
        -1.7729599475860596
      ],
      "type": "VEC3"
    },
    {
      "bufferView": 2,
      "byteOffset": 82824,
      "componentType": 5126,
      "count": 160,
      "max": [
        0.8098876476287842,
        0.9923349618911743,
        0.9229416847229004
      ],
      "min": [
        -0.9219681620597839,
        -0.9550292491912842,
        -0.9229416847229004
      ],
      "type": "VEC3"
    },
    {
      "bufferView": 1,
      "byteOffset": 26968,
      "componentType": 5126,
      "count": 160,
      "max": [
        0.4526199996471405,
        0.4126499891281128
      ],
      "min": [
        0.366100013256073,
        0.3321300148963928
      ],
      "type": "VEC2"
    },
    {
      "bufferView": 0,
      "byteOffset": 20112,
      "componentType": 5125,
      "count": 240,
      "type": "SCALAR"
    }
  ],
  "asset": {
    "extras": {
      "author": "Xana_Nouille (https://sketchfab.com/Xana_Nouille)",
      "license": "CC-BY-4.0 (http://creativecommons.org/licenses/by/4.0/)",
      "source": "https://sketchfab.com/3d-models/low-poly-opossum-5edad50b0ced4fa1915f3f9861af3b7f",
      "title": "Low Poly Opossum"
    },
    "generator": "Sketchfab-12.67.0",
    "version": "2.0"
  },
  "bufferViews": [
    {
      "buffer": 0,
      "byteLength": 21072,
      "name": "floatBufferViews",
      "target": 34963
    },
    {
      "buffer": 0,
      "byteLength": 28248,
      "byteOffset": 21072,
      "byteStride": 8,
      "name": "floatBufferViews",
      "target": 34962
    },
    {
      "buffer": 0,
      "byteLength": 84744,
      "byteOffset": 49320,
      "byteStride": 12,
      "name": "floatBufferViews",
      "target": 34962
    }
  ],
  "buffers": [
    {
      "byteLength": 134064,
      "uri": "scene.bin"
    }
  ],
  "extensionsRequired": [
    "KHR_materials_pbrSpecularGlossiness"
  ],
  "extensionsUsed": [
    "KHR_materials_pbrSpecularGlossiness"
  ],
  "materials": [
    {
      "doubleSided": true,
      "extensions": {
        "KHR_materials_pbrSpecularGlossiness": {
          "diffuseFactor": [
            0.2853696942329407,
            0.34932124614715593,
            0.4672006368637084,
            1.0
          ],
          "glossinessFactor": 0.4,
          "specularFactor": [
            0.0,
            0.0,
            0.0
          ]
        }
      },
      "name": "Material.006"
    },
    {
      "doubleSided": true,
      "extensions": {
        "KHR_materials_pbrSpecularGlossiness": {
          "diffuseFactor": [
            0.7742701768875122,
            0.31091412901878357,
            0.3517394959926605,
            1.0
          ],
          "glossinessFactor": 0.4,
          "specularFactor": [
            0.0,
            0.0,
            0.0
          ]
        }
      },
      "name": "Material.007"
    },
    {
      "doubleSided": true,
      "extensions": {
        "KHR_materials_pbrSpecularGlossiness": {
          "diffuseFactor": [
            0.01779695227742195,
            0.018489664420485497,
            0.025393756106495857,
            1.0
          ],
          "glossinessFactor": 0.4,
          "specularFactor": [
            0.0,
            0.0,
            0.0
          ]
        }
      },
      "name": "Material.008"
    }
  ],
  "meshes": [
    {
      "name": "Opossum_0",
      "primitives": [
        {
          "attributes": {
            "NORMAL": 1,
            "POSITION": 0,
            "TEXCOORD_0": 2
          },
          "indices": 3,
          "material": 0,
          "mode": 4
        }
      ]
    },
    {
      "name": "Opossum_1",
      "primitives": [
        {
          "attributes": {
            "NORMAL": 5,
            "POSITION": 4,
            "TEXCOORD_0": 6
          },
          "indices": 7,
          "material": 1,
          "mode": 4
        }
      ]
    },
    {
      "name": "Opossum_2",
      "primitives": [
        {
          "attributes": {
            "NORMAL": 9,
            "POSITION": 8,
            "TEXCOORD_0": 10
          },
          "indices": 11,
          "material": 2,
          "mode": 4
        }
      ]
    }
  ],
  "nodes": [
    {
      "children": [
        1
      ],
      "matrix": [
        1.0,
        0.0,
        0.0,
        0.0,
        0.0,
        2.220446049250313e-16,
        -1.0,
        0.0,
        0.0,
        1.0,
        2.220446049250313e-16,
        0.0,
        0.0,
        0.0,
        0.0,
        1.0
      ],
      "name": "Sketchfab_model"
    },
    {
      "children": [
        2,
        4
      ],
      "name": "Root"
    },
    {
      "children": [
        3
      ],
      "matrix": [
        -0.29086000000000006,
        0.9551700000000001,
        -0.05519000000000001,
        0.0,
        -0.7711,
        -0.19988000000000003,
        0.6045200000000001,
        0.0,
        0.5663900000000001,
        0.21839000000000003,
        0.7946700000000001,
        0.0,
        4.076250000000001,
        1.00545,
        5.903860000000001,
        1.0
      ],
      "name": "Lamp"
    },
    {
      "name": "Lamp"
    },
    {
      "children": [
        5,
        6,
        7
      ],
      "matrix": [
        -0.0,
        0.0,
        0.3878700000000001,
        0.0,
        0.0,
        0.3878700000000001,
        0.0,
        0.0,
        -0.3878700000000001,
        0.0,
        -0.0,
        0.0,
        0.0,
        0.0,
        1.4882199999999999,
        1.0
      ],
      "name": "Opossum"
    },
    {
      "mesh": 0,
      "name": "Opossum_0"
    },
    {
      "mesh": 1,
      "name": "Opossum_1"
    },
    {
      "mesh": 2,
      "name": "Opossum_2"
    }
  ],
  "scene": 0,
  "scenes": [
    {
      "name": "Sketchfab_Scene",
      "nodes": [
        0
      ]
    }
  ]
}
