{
  "accessors": [
    {
      "bufferView": 2,
      "componentType": 5126,
      "count": 68,
      "max": [
        0.1014299988746643,
        -1.6692500114440918,
        0.7823699712753296
      ],
      "min": [
        -0.1014299988746643,
        -1.7074600458145142,
        0.712119996547699
      ],
      "type": "VEC3"
    },
    {
      "bufferView": 2,
      "byteOffset": 816,
      "componentType": 5126,
      "count": 68,
      "max": [
        0.9520757794380188,
        0.9219492673873901,
        0.9789048433303833
      ],
      "min": [
        -0.9520757794380188,
        -0.9366986751556396,
        -0.983604371547699
      ],
      "type": "VEC3"
    },
    {
      "bufferView": 1,
      "componentType": 5126,
      "count": 68,
      "max": [
        0.04893999919295311,
        0.06009000167250633
      ],
      "min": [
        0.015420000068843365,
        0.010219999589025974
      ],
      "type": "VEC2"
    },
    {
      "bufferView": 0,
      "componentType": 5125,
      "count": 384,
      "type": "SCALAR"
    },
    {
      "bufferView": 2,
      "byteOffset": 1632,
      "componentType": 5126,
      "count": 1719,
      "max": [
        1.8921200037002563,
        4.691120147705078,
        1.3487499952316284
      ],
      "min": [
        -2.178339958190918,
        -5.020199775695801,
        -8.937520027160645
      ],
      "type": "VEC3"
    },
    {
      "bufferView": 2,
      "byteOffset": 22260,
      "componentType": 5126,
      "count": 1719,
      "max": [
        0.9997217059135437,
        0.9997041821479797,
        0.999822735786438
      ],
      "min": [
        -0.9994208216667175,
        -0.9995704889297485,
        -0.9998608231544495
      ],
      "type": "VEC3"
    },
    {
      "bufferView": 1,
      "byteOffset": 544,
      "componentType": 5126,
      "count": 1719,
      "max": [
        1.0007699728012085,
        0.9895099997520447
      ],
      "min": [
        0.005679999943822622,
        0.0
      ],
      "type": "VEC2"
    },
    {
      "bufferView": 0,
      "byteOffset": 1536,
      "componentType": 5125,
      "count": 8364,
      "type": "SCALAR"
    },
    {
      "bufferView": 2,
      "byteOffset": 42888,
      "componentType": 5126,
      "count": 1707,
      "max": [
        1.835170030593872,
        9.01826000213623,
        1.4738399982452393
      ],
      "min": [
        -1.831470012664795,
        -5.396170139312744,
        -3.782989978790283
      ],
      "type": "VEC3"
    },
    {
      "bufferView": 2,
      "byteOffset": 63372,
      "componentType": 5126,
      "count": 1707,
      "max": [
        0.9998764395713806,
        0.9903019070625305,
        0.9999122619628906
      ],
      "min": [
        -0.9989064335823059,
        -0.9980025291442871,
        -0.9998988509178162
      ],
      "type": "VEC3"
    },
    {
      "bufferView": 1,
      "byteOffset": 14296,
      "componentType": 5126,
      "count": 1707,
      "max": [
        1.0,
        0.9895099997520447
      ],
      "min": [
        0.005679999943822622,
        0.0
      ],
      "type": "VEC2"
    },
    {
      "bufferView": 0,
      "byteOffset": 34992,
      "componentType": 5125,
      "count": 8109,
      "type": "SCALAR"
    },
    {
      "bufferView": 2,
      "byteOffset": 83856,
      "componentType": 5126,
      "count": 1701,
      "max": [
        1.7748199701309204,
        7.282649993896484,
        1.1997100114822388
      ],
      "min": [
        -1.8422000408172607,
        -4.871860027313232,
        -7.173329830169678
      ],
      "type": "VEC3"
    },
    {
      "bufferView": 2,
      "byteOffset": 104268,
      "componentType": 5126,
      "count": 1701,
      "max": [
        0.9993259906768799,
        0.9998685717582703,
        0.999834418296814
      ],
      "min": [
        -0.998832643032074,
        -0.9998685717582703,
        -0.9985821843147278
      ],
      "type": "VEC3"
    },
    {
      "bufferView": 1,
      "byteOffset": 27952,
      "componentType": 5126,
      "count": 1701,
      "max": [
        1.0007699728012085,
        0.9895099997520447
      ],
      "min": [
        0.005679999943822622,
        0.0
      ],
      "type": "VEC2"
    },
    {
      "bufferView": 0,
      "byteOffset": 67428,
      "componentType": 5125,
      "count": 8250,
      "type": "SCALAR"
    },
    {
      "bufferView": 2,
      "byteOffset": 124680,
      "componentType": 5126,
      "count": 1707,
      "max": [
        1.820449948310852,
        9.019980430603027,
        1.4040499925613403
      ],
      "min": [
        -1.9448800086975098,
        -5.206389904022217,
        -3.8073201179504395
      ],
      "type": "VEC3"
    },
    {
      "bufferView": 2,
      "byteOffset": 145164,
      "componentType": 5126,
      "count": 1707,
      "max": [
        0.9998618960380554,
        0.9906948208808899,
        0.9997366666793823
      ],
      "min": [
        -0.9992422461509705,
        -0.9989102482795715,
        -0.9995633363723755
      ],
      "type": "VEC3"
    },
    {
      "bufferView": 1,
      "byteOffset": 41560,
      "componentType": 5126,
      "count": 1707,
      "max": [
        1.0,
        0.9895099997520447
      ],
      "min": [
        0.005679999943822622,
        0.0
      ],
      "type": "VEC2"
    },
    {
      "bufferView": 0,
      "byteOffset": 100428,
      "componentType": 5125,
      "count": 8109,
      "type": "SCALAR"
    },
    {
      "bufferView": 2,
      "byteOffset": 165648,
      "componentType": 5126,
      "count": 1735,
      "max": [
        1.9520200490951538,
        4.9075798988342285,
        1.4026299715042114
      ],
      "min": [
        -1.8721799850463867,
        -5.089210033416748,
        -9.184969902038574
      ],
      "type": "VEC3"
    },
    {
      "bufferView": 2,
      "byteOffset": 186468,
      "componentType": 5126,
      "count": 1735,
      "max": [
        0.9996245503425598,
        0.9997932314872742,
        0.9990788698196411
      ],
      "min": [
        -0.9995360970497131,
        -0.9997019171714783,
        -0.9999868273735046
      ],
      "type": "VEC3"
    },
    {
      "bufferView": 1,
      "byteOffset": 55216,
      "componentType": 5126,
      "count": 1735,
      "max": [
        1.0007699728012085,
        0.9895099997520447
      ],
      "min": [
        0.005679999943822622,
        0.0
      ],
      "type": "VEC2"
    },
    {
      "bufferView": 0,
      "byteOffset": 132864,
      "componentType": 5125,
      "count": 8460,
      "type": "SCALAR"
    },
    {
      "bufferView": 2,
      "byteOffset": 207288,
      "componentType": 5126,
      "count": 1841,
      "max": [
        2.108829975128174,
        10.337260246276855,
        2.431030035018921
      ],
      "min": [
        -2.1629199981689453,
        -8.767120361328125,
        -2.6010000705718994
      ],
      "type": "VEC3"
    },
    {
      "bufferView": 2,
      "byteOffset": 229380,
      "componentType": 5126,
      "count": 1841,
      "max": [
        0.9995617866516113,
        0.9955483078956604,
        0.9996707439422607
      ],
      "min": [
        -0.9999744296073914,
        -0.9995508193969727,
        -0.9999254941940308
      ],
      "type": "VEC3"
    },
    {
      "bufferView": 1,
      "byteOffset": 69096,
      "componentType": 5126,
      "count": 1841,
      "max": [
        0.9961199760437012,
        0.9905999898910522
      ],
      "min": [
        0.011269999668002129,
        0.0027099999133497477
      ],
      "type": "VEC2"
    },
    {
      "bufferView": 0,
      "byteOffset": 166704,
      "componentType": 5125,
      "count": 9132,
      "type": "SCALAR"
    },
    {
      "bufferView": 2,
      "byteOffset": 251472,
      "componentType": 5126,
      "count": 81,
      "max": [
        1.4450700283050537,
        1.4450700283050537,
        0.05345999822020531
      ],
      "min": [
        -1.4450700283050537,
        -1.4450700283050537,
        -0.064240001142025
      ],
      "type": "VEC3"
    },
    {
      "bufferView": 2,
      "byteOffset": 252444,
      "componentType": 5126,
      "count": 81,
      "max": [
        0.24384017288684845,
        0.24384017288684845,
        1.0
      ],
      "min": [
        -0.24384017288684845,
        -0.24384017288684845,
        0.9386606812477112
      ],
      "type": "VEC3"
    },
    {
      "bufferView": 1,
      "byteOffset": 83824,
      "componentType": 5126,
      "count": 81,
      "max": [
        0.9998999834060669,
        0.9998999834060669
      ],
      "min": [
        9.999999747378752e-05,
        9.999999747378752e-05
      ],
      "type": "VEC2"
    },
    {
      "bufferView": 0,
      "byteOffset": 203232,
      "componentType": 5125,
      "count": 384,
      "type": "SCALAR"
    }
  ],
  "asset": {
    "extras": {
      "author": "peachyroyalty (https://sketchfab.com/peachyroyalty)",
      "license": "CC-BY-NC-SA-4.0 (http://creativecommons.org/licenses/by-nc-sa/4.0/)",
      "source": "https://sketchfab.com/3d-models/opossum-mom-88472cc3c22e41cea63af8ad2d3a1310",
      "title": "Opossum Mom"
    },
    "generator": "Sketchfab-12.68.0",
    "version": "2.0"
  },
  "bufferViews": [
    {
      "buffer": 0,
      "byteLength": 204768,
      "name": "floatBufferViews",
      "target": 34963
    },
    {
      "buffer": 0,
      "byteLength": 84472,
      "byteOffset": 204768,
      "byteStride": 8,
      "name": "floatBufferViews",
      "target": 34962
    },
    {
      "buffer": 0,
      "byteLength": 253416,
      "byteOffset": 289240,
      "byteStride": 12,
      "name": "floatBufferViews",
      "target": 34962
    }
  ],
  "buffers": [
    {
      "byteLength": 542656,
      "uri": "scene.bin"
    }
  ],
  "extensionsUsed": [
    "KHR_materials_unlit"
  ],
  "images": [
    {
      "uri": "textures/ground_baseColor.png"
    },
    {
      "uri": "textures/PossumMom_baseColor.png"
    },
    {
      "uri": "textures/Material.001_baseColor.png"
    },
    {
      "uri": "textures/PossumDark_baseColor.png"
    }
  ],
  "materials": [
    {
      "doubleSided": true,
      "extensions": {
        "KHR_materials_unlit": {}
      },
      "name": "ground",
      "pbrMetallicRoughness": {
        "baseColorTexture": {
          "index": 0
        },
        "metallicFactor": 0.0
      }
    },
    {
      "doubleSided": true,
      "extensions": {
        "KHR_materials_unlit": {}
      },
      "name": "PossumMom",
      "pbrMetallicRoughness": {
        "baseColorTexture": {
          "index": 1
        },
        "metallicFactor": 0.0
      }
    },
    {
      "doubleSided": true,
      "extensions": {
        "KHR_materials_unlit": {}
      },
      "name": "Material.001",
      "pbrMetallicRoughness": {
        "baseColorTexture": {
          "index": 2
        },
        "metallicFactor": 0.0
      }
    },
    {
      "doubleSided": true,
      "extensions": {
        "KHR_materials_unlit": {}
      },
      "name": "PossumDark",
      "pbrMetallicRoughness": {
        "baseColorTexture": {
          "index": 3
        },
        "metallicFactor": 0.0
      }
    },
    {
      "doubleSided": true,
      "extensions": {
        "KHR_materials_unlit": {}
      },
      "name": "Material.001_0",
      "pbrMetallicRoughness": {
        "baseColorTexture": {
          "index": 2
        },
        "metallicFactor": 0.0
      }
    },
    {
      "doubleSided": true,
      "extensions": {
        "KHR_materials_unlit": {}
      },
      "name": "PossumDark_0",
      "pbrMetallicRoughness": {
        "baseColorTexture": {
          "index": 3
        },
        "metallicFactor": 0.0
      }
    },
    {
      "doubleSided": true,
      "extensions": {
        "KHR_materials_unlit": {}
      },
      "name": "Material.001_1",
      "pbrMetallicRoughness": {
        "baseColorTexture": {
          "index": 2
        },
        "metallicFactor": 0.0
      }
    },
    {
      "alphaMode": "BLEND",
      "doubleSided": true,
      "extensions": {
        "KHR_materials_unlit": {}
      },
      "name": "Material.001_2",
      "pbrMetallicRoughness": {
        "baseColorFactor": [
          1.0,
          1.0,
          1.0,
          0.15
        ],
        "metallicFactor": 0.0
      }
    }
  ],
  "meshes": [
    {
      "name": "Cube.010_0",
      "primitives": [
        {
          "attributes": {
            "NORMAL": 1,
            "POSITION": 0,
            "TEXCOORD_0": 2
          },
          "indices": 3,
          "material": 7,
          "mode": 4
        }
      ]
    },
    {
      "name": "Cube.005_0",
      "primitives": [
        {
          "attributes": {
            "NORMAL": 5,
            "POSITION": 4,
            "TEXCOORD_0": 6
          },
          "indices": 7,
          "material": 6,
          "mode": 4
        }
      ]
    },
    {
      "name": "Cube.019_0",
      "primitives": [
        {
          "attributes": {
            "NORMAL": 9,
            "POSITION": 8,
            "TEXCOORD_0": 10
          },
          "indices": 11,
          "material": 5,
          "mode": 4
        }
      ]
    },
    {
      "name": "Cube.022_0",
      "primitives": [
        {
          "attributes": {
            "NORMAL": 13,
            "POSITION": 12,
            "TEXCOORD_0": 14
          },
          "indices": 15,
          "material": 4,
          "mode": 4
        }
      ]
    },
    {
      "name": "Cube.017_0",
      "primitives": [
        {
          "attributes": {
            "NORMAL": 17,
            "POSITION": 16,
            "TEXCOORD_0": 18
          },
          "indices": 19,
          "material": 3,
          "mode": 4
        }
      ]
    },
    {
      "name": "Cube.009_0",
      "primitives": [
        {
          "attributes": {
            "NORMAL": 21,
            "POSITION": 20,
            "TEXCOORD_0": 22
          },
          "indices": 23,
          "material": 2,
          "mode": 4
        }
      ]
    },
    {
      "name": "Cube.004_0",
      "primitives": [
        {
          "attributes": {
            "NORMAL": 25,
            "POSITION": 24,
            "TEXCOORD_0": 26
          },
          "indices": 27,
          "material": 1,
          "mode": 4
        }
      ]
    },
    {
      "name": "ground_0",
      "primitives": [
        {
          "attributes": {
            "NORMAL": 29,
            "POSITION": 28,
            "TEXCOORD_0": 30
          },
          "indices": 31,
          "material": 0,
          "mode": 4
        }
      ]
    }
  ],
  "nodes": [
    {
      "children": [
        1
      ],
      "matrix": [
        0.8204609751701355,
        0.0,
        0.0,
        0.0,
        0.0,
        1.8217893308805866e-16,
        -0.8204609751701355,
        0.0,
        0.0,
        0.8204609751701355,
        1.8217893308805866e-16,
        0.0,
        0.0,
        0.0,
        0.0,
        1.0
      ],
      "name": "Sketchfab_model"
    },
    {
      "children": [
        2,
        4,
        6,
        8,
        10,
        12,
        14,
        16
      ],
      "name": "Root"
    },
    {
      "children": [
        3
      ],
      "matrix": [
        1.0,
        0.0,
        0.0,
        0.0,
        0.0,
        1.0,
        0.0,
        0.0,
        0.0,
        0.0,
        1.0,
        0.0,
        0.0,
        0.11532000000000002,
        -0.08348000000000001,
        1.0
      ],
      "name": "Cube.010"
    },
    {
      "mesh": 0,
      "name": "Cube.010_0"
    },
    {
      "children": [
        5
      ],
      "matrix": [
        -0.0013900000000000004,
        0.13490000000000002,
        -0.0015200000000000005,
        0.0,
        -0.13123,
        -0.0017100000000000006,
        -0.03128,
        0.0,
        -0.03130000000000001,
        0.0011600000000000002,
        0.13123,
        0.0,
        -0.20286,
        -0.8794700000000001,
        1.65514,
        1.0
      ],
      "name": "Cube.005"
    },
    {
      "mesh": 1,
      "name": "Cube.005_0"
    },
    {
      "children": [
        7
      ],
      "matrix": [
        -0.0003600000000000001,
        0.14650000000000002,
        -0.0022100000000000006,
        0.0,
        -0.10039000000000001,
        -0.0018500000000000005,
        -0.10670000000000002,
        0.0,
        -0.10671000000000001,
        0.0012500000000000002,
        0.10039000000000001,
        0.0,
        -0.5095,
        -0.3914800000000001,
        1.5657699999999999,
        1.0
      ],
      "name": "Cube.019"
    },
    {
      "mesh": 2,
      "name": "Cube.019_0"
    },
    {
      "children": [
        9
      ],
      "matrix": [
        0.15469000000000002,
        0.022320000000000007,
        0.017110000000000004,
        0.0,
        -0.022770000000000006,
        0.15554000000000004,
        0.003000000000000001,
        0.0,
        -0.016500000000000004,
        -0.005430000000000001,
        0.15626000000000004,
        0.0,
        0.06515000000000001,
        0.08179000000000003,
        2.4319499999999996,
        1.0
      ],
      "name": "Cube.022"
    },
    {
      "mesh": 3,
      "name": "Cube.022_0"
    },
    {
      "children": [
        11
      ],
      "matrix": [
        0.0005300000000000001,
        -0.14650000000000002,
        -0.0021800000000000005,
        0.0,
        0.10828000000000002,
        0.0018500000000000005,
        -0.09868000000000003,
        0.0,
        0.09870000000000004,
        -0.0012500000000000002,
        0.10827000000000002,
        0.0,
        0.57645,
        -0.14377,
        1.77252,
        1.0
      ],
      "name": "Cube.017"
    },
    {
      "mesh": 4,
      "name": "Cube.017_0"
    },
    {
      "children": [
        13
      ],
      "matrix": [
        0.011940000000000003,
        -0.15491000000000005,
        -0.0011400000000000004,
        0.0,
        0.15424000000000004,
        0.011790000000000004,
        0.014540000000000003,
        0.0,
        -0.014410000000000001,
        -0.0022500000000000007,
        0.15469000000000002,
        0.0,
        -0.04251000000000001,
        0.31069,
        1.88943,
        1.0
      ],
      "name": "Cube.009"
    },
    {
      "mesh": 5,
      "name": "Cube.009_0"
    },
    {
      "children": [
        15
      ],
      "matrix": [
        0.30068000000000006,
        0.0,
        0.0,
        0.0,
        0.0,
        0.30068000000000006,
        0.0,
        0.0,
        0.0,
        0.0,
        0.30068000000000006,
        0.0,
        -0.0,
        0.41108000000000006,
        0.97939,
        1.0
      ],
      "name": "Cube.004"
    },
    {
      "mesh": 6,
      "name": "Cube.004_0"
    },
    {
      "children": [
        17
      ],
      "matrix": [
        1.0,
        0.0,
        0.0,
        0.0,
        0.0,
        1.0,
        0.0,
        0.0,
        0.0,
        0.0,
        1.0,
        0.0,
        0.0,
        0.0,
        0.17870000000000003,
        1.0
      ],
      "name": "ground"
    },
    {
      "mesh": 7,
      "name": "ground_0"
    }
  ],
  "samplers": [
    {
      "magFilter": 9729,
      "minFilter": 9987,
      "wrapS": 10497,
      "wrapT": 10497
    }
  ],
  "scene": 0,
  "scenes": [
    {
      "name": "Sketchfab_Scene",
      "nodes": [
        0
      ]
    }
  ],
  "textures": [
    {
      "sampler": 0,
      "source": 0
    },
    {
      "sampler": 0,
      "source": 1
    },
    {
      "sampler": 0,
      "source": 2
    },
    {
      "sampler": 0,
      "source": 3
    }
  ]
}
